<svg xmlns="http://www.w3.org/2000/svg" viewBox="0 0 900 420" fill="none">
  <path d="M99 378c104-63 215-103 332-120 117-16 247-3 371 32v130H99V378Z" fill="url(#mountainA)" opacity=".5"/>
  <path d="M0 389c111-82 227-136 349-158 122-21 254-8 551 43v146H0V389Z" fill="url(#mountainB)" opacity=".7"/>
  <path d="M476 278c48-78 94-129 137-153 32-18 61-21 88-9 26 11 45 33 58 66 14 35 22 79 30 124H476v-28Z" fill="#f8b4d9"/>
  <path d="M609 140c18-31 37-52 58-64 20-11 38-13 54-6 15 6 27 19 34 39-16-9-31-12-48-8-20 4-41 17-66 39-10 9-20 18-32 31Z" fill="#fde7f3"/>
  <path d="M628 179c7 18 13 37 15 59 3 26-1 45-12 57h-55c15-17 28-38 36-62 8-24 13-42 16-54Z" fill="#fff5f8" opacity=".95"/>
  <defs>
    <linearGradient id="mountainA" x1="99" y1="274" x2="768" y2="414" gradientUnits="userSpaceOnUse">
      <stop stop-color="#f9d6e3"/>
      <stop offset="1" stop-color="#f4a9c4"/>
    </linearGradient>
    <linearGradient id="mountainB" x1="0" y1="231" x2="900" y2="420" gradientUnits="userSpaceOnUse">
      <stop stop-color="#f9dce7"/>
      <stop offset=".55" stop-color="#f5bfd5"/>
      <stop offset="1" stop-color="#ef9bbc"/>
    </linearGradient>
  </defs>
</svg>
