<svg xmlns="http://www.w3.org/2000/svg" viewBox="0 0 32 32" width="32" height="32">
  <!-- Chest lid -->
  <rect x="0" y="4" width="4" height="4" fill="#92400e"/>
  <rect x="4" y="4" width="4" height="4" fill="#b45309"/>
  <rect x="8" y="4" width="4" height="4" fill="#b45309"/>
  <rect x="12" y="4" width="4" height="4" fill="#b45309"/>
  <rect x="16" y="4" width="4" height="4" fill="#b45309"/>
  <rect x="20" y="4" width="4" height="4" fill="#b45309"/>
  <rect x="24" y="4" width="4" height="4" fill="#b45309"/>
  <rect x="28" y="4" width="4" height="4" fill="#78350f"/>
  <rect x="0" y="8" width="4" height="4" fill="#92400e"/>
  <rect x="4" y="8" width="4" height="4" fill="#d97706"/>
  <rect x="8" y="8" width="4" height="4" fill="#d97706"/>
  <rect x="12" y="8" width="4" height="4" fill="#fbbf24"/>
  <rect x="16" y="8" width="4" height="4" fill="#fbbf24"/>
  <rect x="20" y="8" width="4" height="4" fill="#d97706"/>
  <rect x="24" y="8" width="4" height="4" fill="#d97706"/>
  <rect x="28" y="8" width="4" height="4" fill="#78350f"/>
  <!-- Chest body -->
  <rect x="0" y="12" width="4" height="4" fill="#78350f"/>
  <rect x="4" y="12" width="4" height="4" fill="#92400e"/>
  <rect x="8" y="12" width="4" height="4" fill="#92400e"/>
  <rect x="12" y="12" width="4" height="4" fill="#fbbf24"/>
  <rect x="16" y="12" width="4" height="4" fill="#f59e0b"/>
  <rect x="20" y="12" width="4" height="4" fill="#92400e"/>
  <rect x="24" y="12" width="4" height="4" fill="#92400e"/>
  <rect x="28" y="12" width="4" height="4" fill="#78350f"/>
  <rect x="0" y="16" width="4" height="4" fill="#78350f"/>
  <rect x="4" y="16" width="4" height="4" fill="#92400e"/>
  <rect x="8" y="16" width="4" height="4" fill="#92400e"/>
  <rect x="12" y="16" width="4" height="4" fill="#92400e"/>
  <rect x="16" y="16" width="4" height="4" fill="#92400e"/>
  <rect x="20" y="16" width="4" height="4" fill="#92400e"/>
  <rect x="24" y="16" width="4" height="4" fill="#92400e"/>
  <rect x="28" y="16" width="4" height="4" fill="#78350f"/>
  <rect x="0" y="20" width="4" height="4" fill="#78350f"/>
  <rect x="4" y="20" width="4" height="4" fill="#78350f"/>
  <rect x="8" y="20" width="4" height="4" fill="#78350f"/>
  <rect x="12" y="20" width="4" height="4" fill="#78350f"/>
  <rect x="16" y="20" width="4" height="4" fill="#78350f"/>
  <rect x="20" y="20" width="4" height="4" fill="#78350f"/>
  <rect x="24" y="20" width="4" height="4" fill="#78350f"/>
  <rect x="28" y="20" width="4" height="4" fill="#451a03"/>
</svg>
