<svg xmlns="http://www.w3.org/2000/svg" viewBox="0 0 32 32" width="32" height="32">
  <!-- Crown points -->
  <rect x="4" y="4" width="4" height="4" fill="#fbbf24"/>
  <rect x="16" y="0" width="4" height="4" fill="#fbbf24"/>
  <rect x="28" y="4" width="4" height="4" fill="#f59e0b"/>
  <!-- Crown body -->
  <rect x="4" y="8" width="4" height="4" fill="#fbbf24"/>
  <rect x="8" y="8" width="4" height="4" fill="#fef3c7"/>
  <rect x="12" y="8" width="4" height="4" fill="#fbbf24"/>
  <rect x="16" y="4" width="4" height="4" fill="#fef3c7"/>
  <rect x="16" y="8" width="4" height="4" fill="#fbbf24"/>
  <rect x="20" y="8" width="4" height="4" fill="#fef3c7"/>
  <rect x="24" y="8" width="4" height="4" fill="#fbbf24"/>
  <rect x="28" y="8" width="4" height="4" fill="#f59e0b"/>
  <rect x="0" y="12" width="4" height="4" fill="#fbbf24"/>
  <rect x="4" y="12" width="4" height="4" fill="#fbbf24"/>
  <rect x="8" y="12" width="4" height="4" fill="#fbbf24"/>
  <rect x="12" y="12" width="4" height="4" fill="#ef4444"/>
  <rect x="16" y="12" width="4" height="4" fill="#fbbf24"/>
  <rect x="20" y="12" width="4" height="4" fill="#ef4444"/>
  <rect x="24" y="12" width="4" height="4" fill="#fbbf24"/>
  <rect x="28" y="12" width="4" height="4" fill="#f59e0b"/>
  <!-- Crown base -->
  <rect x="0" y="16" width="4" height="4" fill="#f59e0b"/>
  <rect x="4" y="16" width="4" height="4" fill="#fbbf24"/>
  <rect x="8" y="16" width="4" height="4" fill="#fbbf24"/>
  <rect x="12" y="16" width="4" height="4" fill="#fbbf24"/>
  <rect x="16" y="16" width="4" height="4" fill="#fbbf24"/>
  <rect x="20" y="16" width="4" height="4" fill="#fbbf24"/>
  <rect x="24" y="16" width="4" height="4" fill="#f59e0b"/>
  <rect x="28" y="16" width="4" height="4" fill="#d97706"/>
</svg>
