<svg xmlns="http://www.w3.org/2000/svg" viewBox="0 0 32 32" width="32" height="32">
  <!-- Diamond gem -->
  <rect x="12" y="0" width="4" height="4" fill="#06b6d4"/>
  <rect x="16" y="0" width="4" height="4" fill="#06b6d4"/>
  <rect x="8" y="4" width="4" height="4" fill="#22d3ee"/>
  <rect x="12" y="4" width="4" height="4" fill="#67e8f9"/>
  <rect x="16" y="4" width="4" height="4" fill="#22d3ee"/>
  <rect x="20" y="4" width="4" height="4" fill="#0891b2"/>
  <rect x="4" y="8" width="4" height="4" fill="#06b6d4"/>
  <rect x="8" y="8" width="4" height="4" fill="#67e8f9"/>
  <rect x="12" y="8" width="4" height="4" fill="#cffafe"/>
  <rect x="16" y="8" width="4" height="4" fill="#67e8f9"/>
  <rect x="20" y="8" width="4" height="4" fill="#22d3ee"/>
  <rect x="24" y="8" width="4" height="4" fill="#0891b2"/>
  <rect x="8" y="12" width="4" height="4" fill="#22d3ee"/>
  <rect x="12" y="12" width="4" height="4" fill="#67e8f9"/>
  <rect x="16" y="12" width="4" height="4" fill="#22d3ee"/>
  <rect x="20" y="12" width="4" height="4" fill="#0891b2"/>
  <rect x="12" y="16" width="4" height="4" fill="#06b6d4"/>
  <rect x="16" y="16" width="4" height="4" fill="#0891b2"/>
  <rect x="12" y="20" width="4" height="4" fill="#0891b2"/>
  <rect x="16" y="20" width="4" height="4" fill="#0e7490"/>
</svg>
