<svg xmlns="http://www.w3.org/2000/svg" viewBox="0 0 32 32" width="32" height="32">
  <!-- Cork -->
  <rect x="12" y="0" width="4" height="4" fill="#92400e"/>
  <rect x="16" y="0" width="4" height="4" fill="#78350f"/>
  <rect x="12" y="4" width="4" height="4" fill="#78350f"/>
  <rect x="16" y="4" width="4" height="4" fill="#92400e"/>
  <!-- Bottle neck -->
  <rect x="12" y="8" width="4" height="4" fill="#e5e7eb"/>
  <rect x="16" y="8" width="4" height="4" fill="#d1d5db"/>
  <!-- Bottle body -->
  <rect x="8" y="12" width="4" height="4" fill="#e5e7eb"/>
  <rect x="12" y="12" width="4" height="4" fill="#a855f7"/>
  <rect x="16" y="12" width="4" height="4" fill="#9333ea"/>
  <rect x="20" y="12" width="4" height="4" fill="#d1d5db"/>
  <rect x="4" y="16" width="4" height="4" fill="#e5e7eb"/>
  <rect x="8" y="16" width="4" height="4" fill="#c084fc"/>
  <rect x="12" y="16" width="4" height="4" fill="#a855f7"/>
  <rect x="16" y="16" width="4" height="4" fill="#9333ea"/>
  <rect x="20" y="16" width="4" height="4" fill="#7c3aed"/>
  <rect x="24" y="16" width="4" height="4" fill="#d1d5db"/>
  <rect x="4" y="20" width="4" height="4" fill="#e5e7eb"/>
  <rect x="8" y="20" width="4" height="4" fill="#a855f7"/>
  <rect x="12" y="20" width="4" height="4" fill="#9333ea"/>
  <rect x="16" y="20" width="4" height="4" fill="#7c3aed"/>
  <rect x="20" y="20" width="4" height="4" fill="#6d28d9"/>
  <rect x="24" y="20" width="4" height="4" fill="#d1d5db"/>
  <rect x="8" y="24" width="4" height="4" fill="#e5e7eb"/>
  <rect x="12" y="24" width="4" height="4" fill="#9333ea"/>
  <rect x="16" y="24" width="4" height="4" fill="#7c3aed"/>
  <rect x="20" y="24" width="4" height="4" fill="#d1d5db"/>
  <rect x="12" y="28" width="4" height="4" fill="#d1d5db"/>
  <rect x="16" y="28" width="4" height="4" fill="#9ca3af"/>
</svg>
