<svg xmlns="http://www.w3.org/2000/svg" viewBox="0 0 32 32" width="32" height="32">
  <!-- Blade -->
  <rect x="24" y="0" width="4" height="4" fill="#e5e7eb"/>
  <rect x="20" y="4" width="4" height="4" fill="#e5e7eb"/>
  <rect x="24" y="4" width="4" height="4" fill="#f3f4f6"/>
  <rect x="16" y="8" width="4" height="4" fill="#e5e7eb"/>
  <rect x="20" y="8" width="4" height="4" fill="#f3f4f6"/>
  <rect x="12" y="12" width="4" height="4" fill="#e5e7eb"/>
  <rect x="16" y="12" width="4" height="4" fill="#f3f4f6"/>
  <rect x="8" y="16" width="4" height="4" fill="#e5e7eb"/>
  <rect x="12" y="16" width="4" height="4" fill="#f3f4f6"/>
  <!-- Guard -->
  <rect x="0" y="20" width="4" height="4" fill="#fbbf24"/>
  <rect x="4" y="20" width="4" height="4" fill="#fbbf24"/>
  <rect x="8" y="20" width="4" height="4" fill="#f59e0b"/>
  <rect x="12" y="20" width="4" height="4" fill="#fbbf24"/>
  <rect x="16" y="20" width="4" height="4" fill="#fbbf24"/>
  <!-- Handle -->
  <rect x="4" y="24" width="4" height="4" fill="#92400e"/>
  <rect x="8" y="24" width="4" height="4" fill="#78350f"/>
  <rect x="4" y="28" width="4" height="4" fill="#78350f"/>
  <rect x="8" y="28" width="4" height="4" fill="#92400e"/>
</svg>
