<svg xmlns="http://www.w3.org/2000/svg" viewBox="0 0 64 64" width="64" height="64">
  <!-- Simplified dragon head -->
  <ellipse cx="32" cy="32" rx="20" ry="16" fill="#dc2626"/>
  <!-- Eyes -->
  <ellipse cx="24" cy="28" rx="4" ry="5" fill="#fef3c7"/>
  <circle cx="24" cy="28" r="2" fill="#1f2937"/>
  <ellipse cx="40" cy="28" rx="4" ry="5" fill="#fef3c7"/>
  <circle cx="40" cy="28" r="2" fill="#1f2937"/>
  <!-- Nostrils -->
  <circle cx="28" cy="38" r="2" fill="#991b1b"/>
  <circle cx="36" cy="38" r="2" fill="#991b1b"/>
  <!-- Horns -->
  <path d="M20 18 L16 8 L22 16" fill="#fbbf24"/>
  <path d="M44 18 L48 8 L42 16" fill="#fbbf24"/>
  <!-- Whiskers -->
  <path d="M12 32 Q8 28 4 30" stroke="#fbbf24" stroke-width="2" fill="none"/>
  <path d="M12 36 Q8 36 4 38" stroke="#fbbf24" stroke-width="2" fill="none"/>
  <path d="M52 32 Q56 28 60 30" stroke="#fbbf24" stroke-width="2" fill="none"/>
  <path d="M52 36 Q56 36 60 38" stroke="#fbbf24" stroke-width="2" fill="none"/>
  <!-- Eyebrows -->
  <path d="M18 22 Q24 18 30 22" stroke="#fbbf24" stroke-width="2" fill="none"/>
  <path d="M34 22 Q40 18 46 22" stroke="#fbbf24" stroke-width="2" fill="none"/>
</svg>
