<svg xmlns="http://www.w3.org/2000/svg" viewBox="0 0 64 64" width="64" height="64">
  <!-- Center burst -->
  <circle cx="32" cy="32" r="6" fill="#fbbf24"/>
  <!-- Main rays -->
  <line x1="32" y1="32" x2="32" y2="4" stroke="#ef4444" stroke-width="3" stroke-linecap="round"/>
  <line x1="32" y1="32" x2="32" y2="60" stroke="#ef4444" stroke-width="3" stroke-linecap="round"/>
  <line x1="32" y1="32" x2="4" y2="32" stroke="#f97316" stroke-width="3" stroke-linecap="round"/>
  <line x1="32" y1="32" x2="60" y2="32" stroke="#f97316" stroke-width="3" stroke-linecap="round"/>
  <!-- Diagonal rays -->
  <line x1="32" y1="32" x2="12" y2="12" stroke="#fbbf24" stroke-width="2" stroke-linecap="round"/>
  <line x1="32" y1="32" x2="52" y2="12" stroke="#fbbf24" stroke-width="2" stroke-linecap="round"/>
  <line x1="32" y1="32" x2="12" y2="52" stroke="#fbbf24" stroke-width="2" stroke-linecap="round"/>
  <line x1="32" y1="32" x2="52" y2="52" stroke="#fbbf24" stroke-width="2" stroke-linecap="round"/>
  <!-- Sparkles -->
  <circle cx="32" cy="4" r="3" fill="#fef3c7"/>
  <circle cx="32" cy="60" r="3" fill="#fef3c7"/>
  <circle cx="4" cy="32" r="3" fill="#fef3c7"/>
  <circle cx="60" cy="32" r="3" fill="#fef3c7"/>
  <circle cx="12" cy="12" r="2" fill="#fef3c7"/>
  <circle cx="52" cy="12" r="2" fill="#fef3c7"/>
  <circle cx="12" cy="52" r="2" fill="#fef3c7"/>
  <circle cx="52" cy="52" r="2" fill="#fef3c7"/>
  <!-- Extra sparkles -->
  <circle cx="20" cy="8" r="1.5" fill="#ec4899"/>
  <circle cx="44" cy="8" r="1.5" fill="#ec4899"/>
  <circle cx="8" cy="20" r="1.5" fill="#ec4899"/>
  <circle cx="56" cy="20" r="1.5" fill="#ec4899"/>
</svg>
