<svg xmlns="http://www.w3.org/2000/svg" viewBox="0 0 64 64" width="64" height="64">
  <!-- Gold ingot (yuan bao) shape -->
  <path d="M8 40 Q8 32 20 28 L28 20 Q32 16 36 20 L44 28 Q56 32 56 40 L56 44 Q56 48 48 48 L16 48 Q8 48 8 44 Z" fill="#fbbf24"/>
  <!-- Highlight -->
  <path d="M16 36 Q16 32 24 30 L30 24 Q32 22 34 24 L40 30 Q48 32 48 36" fill="#fef3c7"/>
  <!-- Shadow -->
  <path d="M8 44 Q8 48 16 48 L48 48 Q56 48 56 44 L56 46 Q56 50 48 50 L16 50 Q8 50 8 46 Z" fill="#d97706"/>
  <!-- Shine -->
  <ellipse cx="24" cy="32" rx="4" ry="2" fill="#fff" opacity="0.5"/>
</svg>
