<svg xmlns="http://www.w3.org/2000/svg" viewBox="0 0 64 64" width="64" height="64">
  <!-- Chinese knot -->
  <rect x="24" y="4" width="16" height="8" rx="2" fill="#dc2626"/>
  <!-- Main knot body -->
  <rect x="16" y="16" width="32" height="32" rx="4" fill="#dc2626"/>
  <!-- Inner pattern -->
  <rect x="20" y="20" width="24" height="24" fill="#b91c1c"/>
  <rect x="24" y="24" width="16" height="16" fill="#dc2626"/>
  <!-- Central diamond -->
  <path d="M32 24 L40 32 L32 40 L24 32 Z" fill="#fbbf24"/>
  <!-- Corner decorations -->
  <circle cx="20" cy="20" r="3" fill="#fbbf24"/>
  <circle cx="44" cy="20" r="3" fill="#fbbf24"/>
  <circle cx="20" cy="44" r="3" fill="#fbbf24"/>
  <circle cx="44" cy="44" r="3" fill="#fbbf24"/>
  <!-- Tassels -->
  <rect x="20" y="48" width="4" height="12" fill="#dc2626"/>
  <rect x="28" y="48" width="4" height="14" fill="#dc2626"/>
  <rect x="36" y="48" width="4" height="12" fill="#dc2626"/>
  <circle cx="22" cy="60" r="2" fill="#fbbf24"/>
  <circle cx="30" cy="62" r="2" fill="#fbbf24"/>
  <circle cx="38" cy="60" r="2" fill="#fbbf24"/>
</svg>
