<svg xmlns="http://www.w3.org/2000/svg" viewBox="0 0 64 64" width="64" height="64">
  <!-- Koi body -->
  <ellipse cx="32" cy="32" rx="24" ry="14" fill="#f97316"/>
  <!-- White pattern -->
  <ellipse cx="24" cy="28" rx="8" ry="6" fill="#fff"/>
  <ellipse cx="40" cy="34" rx="6" ry="4" fill="#fff"/>
  <!-- Tail -->
  <path d="M56 32 Q64 24 60 16 Q56 24 56 32 Q56 40 60 48 Q64 40 56 32" fill="#f97316"/>
  <!-- Fins -->
  <path d="M24 18 Q20 10 28 14 Q24 18 24 18" fill="#fb923c"/>
  <path d="M24 46 Q20 54 28 50 Q24 46 24 46" fill="#fb923c"/>
  <!-- Eye -->
  <circle cx="14" cy="30" r="4" fill="#fff"/>
  <circle cx="14" cy="30" r="2" fill="#1f2937"/>
  <!-- Scales pattern -->
  <path d="M28 28 Q32 24 36 28" stroke="#ea580c" stroke-width="1" fill="none" opacity="0.5"/>
  <path d="M32 32 Q36 28 40 32" stroke="#ea580c" stroke-width="1" fill="none" opacity="0.5"/>
  <path d="M28 36 Q32 32 36 36" stroke="#ea580c" stroke-width="1" fill="none" opacity="0.5"/>
</svg>
