<svg xmlns="http://www.w3.org/2000/svg" viewBox="0 0 64 64" width="64" height="64">
  <!-- Petals -->
  <ellipse cx="32" cy="16" rx="8" ry="12" fill="#ec4899"/>
  <ellipse cx="48" cy="28" rx="8" ry="12" fill="#ec4899" transform="rotate(72 48 28)"/>
  <ellipse cx="44" cy="48" rx="8" ry="12" fill="#ec4899" transform="rotate(144 44 48)"/>
  <ellipse cx="20" cy="48" rx="8" ry="12" fill="#ec4899" transform="rotate(-144 20 48)"/>
  <ellipse cx="16" cy="28" rx="8" ry="12" fill="#ec4899" transform="rotate(-72 16 28)"/>
  <!-- Inner petals (lighter) -->
  <ellipse cx="32" cy="20" rx="4" ry="6" fill="#f9a8d4"/>
  <ellipse cx="44" cy="30" rx="4" ry="6" fill="#f9a8d4" transform="rotate(72 44 30)"/>
  <ellipse cx="40" cy="44" rx="4" ry="6" fill="#f9a8d4" transform="rotate(144 40 44)"/>
  <ellipse cx="24" cy="44" rx="4" ry="6" fill="#f9a8d4" transform="rotate(-144 24 44)"/>
  <ellipse cx="20" cy="30" rx="4" ry="6" fill="#f9a8d4" transform="rotate(-72 20 30)"/>
  <!-- Center -->
  <circle cx="32" cy="36" r="6" fill="#fbbf24"/>
  <!-- Stamens -->
  <circle cx="32" cy="32" r="1" fill="#92400e"/>
  <circle cx="30" cy="36" r="1" fill="#92400e"/>
  <circle cx="34" cy="36" r="1" fill="#92400e"/>
  <circle cx="30" cy="40" r="1" fill="#92400e"/>
  <circle cx="34" cy="40" r="1" fill="#92400e"/>
</svg>
