<svg xmlns="http://www.w3.org/2000/svg" viewBox="0 0 64 64" width="64" height="64">
  <!-- Sleigh body -->
  <path d="M8 28 L8 44 Q8 48 16 48 L56 48 Q60 48 60 44 L60 36 Q60 28 52 28 L16 28 Q8 28 8 32" fill="#dc2626"/>
  <!-- Sleigh back -->
  <path d="M8 28 L8 16 Q8 12 12 12 L20 12 Q24 12 24 16 L24 28" fill="#dc2626"/>
  <!-- Runner -->
  <path d="M4 52 Q8 48 16 48 L56 48 Q60 48 60 52" stroke="#fbbf24" stroke-width="4" fill="none"/>
  <!-- Decorations -->
  <rect x="12" y="32" width="44" height="4" fill="#fbbf24"/>
  <!-- Gift boxes in sleigh -->
  <rect x="28" y="20" width="10" height="10" fill="#22c55e"/>
  <rect x="40" y="24" width="8" height="8" fill="#3b82f6"/>
  <rect x="50" y="22" width="6" height="10" fill="#f59e0b"/>
</svg>
