<svg xmlns="http://www.w3.org/2000/svg" viewBox="0 0 64 64" width="64" height="64">
  <!-- Bug body -->
  <ellipse cx="32" cy="40" rx="16" ry="18" fill="#ef4444"/>
  <!-- Bug head -->
  <circle cx="32" cy="20" r="10" fill="#1f2937"/>
  <!-- Eyes -->
  <circle cx="28" cy="18" r="3" fill="#fff"/>
  <circle cx="36" cy="18" r="3" fill="#fff"/>
  <circle cx="28" cy="18" r="1.5" fill="#1f2937"/>
  <circle cx="36" cy="18" r="1.5" fill="#1f2937"/>
  <!-- Antennae -->
  <path d="M28 12 L24 4" stroke="#1f2937" stroke-width="2" stroke-linecap="round"/>
  <path d="M36 12 L40 4" stroke="#1f2937" stroke-width="2" stroke-linecap="round"/>
  <circle cx="24" cy="4" r="2" fill="#1f2937"/>
  <circle cx="40" cy="4" r="2" fill="#1f2937"/>
  <!-- Legs -->
  <path d="M18 32 L8 28" stroke="#1f2937" stroke-width="3" stroke-linecap="round"/>
  <path d="M18 40 L6 40" stroke="#1f2937" stroke-width="3" stroke-linecap="round"/>
  <path d="M18 48 L8 52" stroke="#1f2937" stroke-width="3" stroke-linecap="round"/>
  <path d="M46 32 L56 28" stroke="#1f2937" stroke-width="3" stroke-linecap="round"/>
  <path d="M46 40 L58 40" stroke="#1f2937" stroke-width="3" stroke-linecap="round"/>
  <path d="M46 48 L56 52" stroke="#1f2937" stroke-width="3" stroke-linecap="round"/>
  <!-- Shell pattern -->
  <line x1="32" y1="26" x2="32" y2="56" stroke="#b91c1c" stroke-width="2"/>
  <path d="M20 36 Q32 32 44 36" stroke="#b91c1c" stroke-width="1.5" fill="none"/>
  <path d="M20 44 Q32 40 44 44" stroke="#b91c1c" stroke-width="1.5" fill="none"/>
</svg>
