<svg xmlns="http://www.w3.org/2000/svg" viewBox="0 0 64 64" width="64" height="64">
  <!-- CPU body -->
  <rect x="16" y="16" width="32" height="32" rx="2" fill="#27272a"/>
  <!-- Inner die -->
  <rect x="22" y="22" width="20" height="20" rx="1" fill="#6366f1"/>
  <rect x="26" y="26" width="12" height="12" fill="#4f46e5"/>
  <!-- Pins - top -->
  <rect x="20" y="8" width="3" height="8" fill="#a1a1aa"/>
  <rect x="26" y="8" width="3" height="8" fill="#a1a1aa"/>
  <rect x="32" y="8" width="3" height="8" fill="#a1a1aa"/>
  <rect x="38" y="8" width="3" height="8" fill="#a1a1aa"/>
  <!-- Pins - bottom -->
  <rect x="20" y="48" width="3" height="8" fill="#a1a1aa"/>
  <rect x="26" y="48" width="3" height="8" fill="#a1a1aa"/>
  <rect x="32" y="48" width="3" height="8" fill="#a1a1aa"/>
  <rect x="38" y="48" width="3" height="8" fill="#a1a1aa"/>
  <!-- Pins - left -->
  <rect x="8" y="20" width="8" height="3" fill="#a1a1aa"/>
  <rect x="8" y="26" width="8" height="3" fill="#a1a1aa"/>
  <rect x="8" y="32" width="8" height="3" fill="#a1a1aa"/>
  <rect x="8" y="38" width="8" height="3" fill="#a1a1aa"/>
  <!-- Pins - right -->
  <rect x="48" y="20" width="8" height="3" fill="#a1a1aa"/>
  <rect x="48" y="26" width="8" height="3" fill="#a1a1aa"/>
  <rect x="48" y="32" width="8" height="3" fill="#a1a1aa"/>
  <rect x="48" y="38" width="8" height="3" fill="#a1a1aa"/>
</svg>
