<svg xmlns="http://www.w3.org/2000/svg" viewBox="0 0 64 64" width="64" height="64">
  <!-- Keyboard base -->
  <rect x="2" y="16" width="60" height="36" rx="4" fill="#27272a"/>
  <!-- Key rows -->
  <!-- Top row -->
  <rect x="6" y="20" width="6" height="6" rx="1" fill="#3f3f46"/>
  <rect x="14" y="20" width="6" height="6" rx="1" fill="#3f3f46"/>
  <rect x="22" y="20" width="6" height="6" rx="1" fill="#3f3f46"/>
  <rect x="30" y="20" width="6" height="6" rx="1" fill="#3f3f46"/>
  <rect x="38" y="20" width="6" height="6" rx="1" fill="#3f3f46"/>
  <rect x="46" y="20" width="6" height="6" rx="1" fill="#3f3f46"/>
  <rect x="54" y="20" width="6" height="6" rx="1" fill="#3f3f46"/>
  <!-- Middle row -->
  <rect x="8" y="28" width="6" height="6" rx="1" fill="#3f3f46"/>
  <rect x="16" y="28" width="6" height="6" rx="1" fill="#3f3f46"/>
  <rect x="24" y="28" width="6" height="6" rx="1" fill="#3f3f46"/>
  <rect x="32" y="28" width="6" height="6" rx="1" fill="#6366f1"/>
  <rect x="40" y="28" width="6" height="6" rx="1" fill="#3f3f46"/>
  <rect x="48" y="28" width="6" height="6" rx="1" fill="#3f3f46"/>
  <!-- Bottom row -->
  <rect x="10" y="36" width="6" height="6" rx="1" fill="#3f3f46"/>
  <rect x="18" y="36" width="6" height="6" rx="1" fill="#3f3f46"/>
  <rect x="26" y="36" width="6" height="6" rx="1" fill="#3f3f46"/>
  <rect x="34" y="36" width="6" height="6" rx="1" fill="#3f3f46"/>
  <rect x="42" y="36" width="6" height="6" rx="1" fill="#3f3f46"/>
  <rect x="50" y="36" width="6" height="6" rx="1" fill="#3f3f46"/>
  <!-- Space bar -->
  <rect x="16" y="44" width="32" height="5" rx="1" fill="#3f3f46"/>
</svg>
