<svg xmlns="http://www.w3.org/2000/svg" viewBox="0 0 24 24" fill="none">
  <defs>
    <linearGradient id="barbSkin" x1="0%" y1="0%" x2="100%" y2="100%">
      <stop offset="0%" style="stop-color:#ffcc99"/>
      <stop offset="100%" style="stop-color:#e6a366"/>
    </linearGradient>
    <linearGradient id="barbHair" x1="0%" y1="0%" x2="100%" y2="100%">
      <stop offset="0%" style="stop-color:#ffd700"/>
      <stop offset="100%" style="stop-color:#daa520"/>
    </linearGradient>
  </defs>
  <!-- Hair/Mohawk -->
  <path d="M8 4C8 2 10 1 12 1C14 1 16 2 16 4L15 8H9L8 4Z" fill="url(#barbHair)" stroke="#b8860b" stroke-width="0.5"/>
  <path d="M10 1C10 0 11 -1 12 -1C13 -1 14 0 14 1" fill="url(#barbHair)"/>
  <!-- Face -->
  <circle cx="12" cy="10" r="5" fill="url(#barbSkin)" stroke="#cc8844" stroke-width="0.5"/>
  <!-- Angry eyebrows -->
  <path d="M9 8L11 9" stroke="#8b4513" stroke-width="1" stroke-linecap="round"/>
  <path d="M15 8L13 9" stroke="#8b4513" stroke-width="1" stroke-linecap="round"/>
  <!-- Eyes -->
  <circle cx="10" cy="10" r="0.8" fill="#000"/>
  <circle cx="14" cy="10" r="0.8" fill="#000"/>
  <!-- Mustache -->
  <path d="M9 12C10 13 11 13 12 12C13 13 14 13 15 12" stroke="#daa520" stroke-width="1" fill="none"/>
  <!-- Body -->
  <path d="M8 15H16V22H8V15Z" fill="url(#barbSkin)" stroke="#cc8844" stroke-width="0.5"/>
  <!-- Belt -->
  <rect x="8" y="18" width="8" height="2" fill="#8b4513" stroke="#5c3317" stroke-width="0.3"/>
  <rect x="11" y="18" width="2" height="2" fill="#ffd700"/>
</svg>
