<svg xmlns="http://www.w3.org/2000/svg" viewBox="0 0 24 24" fill="none">
  <defs>
    <linearGradient id="stoneGray" x1="0%" y1="0%" x2="100%" y2="100%">
      <stop offset="0%" style="stop-color:#a0a0a0"/>
      <stop offset="50%" style="stop-color:#808080"/>
      <stop offset="100%" style="stop-color:#606060"/>
    </linearGradient>
    <linearGradient id="roofRed" x1="0%" y1="0%" x2="100%" y2="100%">
      <stop offset="0%" style="stop-color:#8b0000"/>
      <stop offset="100%" style="stop-color:#5c0000"/>
    </linearGradient>
  </defs>
  <!-- Left tower -->
  <rect x="2" y="8" width="5" height="14" fill="url(#stoneGray)" stroke="#404040" stroke-width="0.5"/>
  <path d="M2 8L4.5 2L7 8" fill="url(#roofRed)" stroke="#400000" stroke-width="0.5"/>
  <!-- Battlements left -->
  <rect x="2" y="6" width="1.5" height="2" fill="url(#stoneGray)"/>
  <rect x="5.5" y="6" width="1.5" height="2" fill="url(#stoneGray)"/>

  <!-- Right tower -->
  <rect x="17" y="8" width="5" height="14" fill="url(#stoneGray)" stroke="#404040" stroke-width="0.5"/>
  <path d="M17 8L19.5 2L22 8" fill="url(#roofRed)" stroke="#400000" stroke-width="0.5"/>
  <!-- Battlements right -->
  <rect x="17" y="6" width="1.5" height="2" fill="url(#stoneGray)"/>
  <rect x="20.5" y="6" width="1.5" height="2" fill="url(#stoneGray)"/>

  <!-- Main building -->
  <rect x="7" y="10" width="10" height="12" fill="url(#stoneGray)" stroke="#404040" stroke-width="0.5"/>
  <!-- Center tower -->
  <rect x="9" y="5" width="6" height="8" fill="url(#stoneGray)" stroke="#404040" stroke-width="0.5"/>
  <path d="M9 5L12 0L15 5" fill="url(#roofRed)" stroke="#400000" stroke-width="0.5"/>

  <!-- Door -->
  <path d="M10 22V17C10 15.5 11 14 12 14C13 14 14 15.5 14 17V22" fill="#5c3317" stroke="#3c2317" stroke-width="0.5"/>

  <!-- Windows -->
  <rect x="10" y="7" width="1.5" height="2" fill="#2a2a2a"/>
  <rect x="12.5" y="7" width="1.5" height="2" fill="#2a2a2a"/>

  <!-- Gold flag -->
  <line x1="12" y1="0" x2="12" y2="-2" stroke="#8b4513" stroke-width="0.5"/>
  <path d="M12 -2L16 -1L12 0" fill="#ffd700"/>
</svg>
