<svg xmlns="http://www.w3.org/2000/svg" viewBox="0 0 24 24" fill="none">
  <defs>
    <linearGradient id="wandGold" x1="0%" y1="0%" x2="100%" y2="100%">
      <stop offset="0%" style="stop-color:#ffd700"/>
      <stop offset="100%" style="stop-color:#daa520"/>
    </linearGradient>
    <linearGradient id="wandPurple" x1="0%" y1="0%" x2="100%" y2="100%">
      <stop offset="0%" style="stop-color:#da70d6"/>
      <stop offset="100%" style="stop-color:#9932cc"/>
    </linearGradient>
  </defs>
  <!-- Wand -->
  <rect x="6" y="14" width="3" height="10" rx="0.5" fill="url(#wandGold)" stroke="#b8860b" stroke-width="0.5" transform="rotate(-45 7.5 19)"/>
  <!-- Wand tip -->
  <circle cx="6" cy="6" r="3" fill="url(#wandPurple)" stroke="#6a0a8a" stroke-width="0.5"/>
  <!-- Magic sparkles -->
  <path d="M6 2L6.5 4H8L7 5L7.5 7L6 6L4.5 7L5 5L4 4H5.5L6 2Z" fill="#ffd700"/>
  <circle cx="10" cy="4" r="1" fill="#da70d6"/>
  <circle cx="3" cy="8" r="0.8" fill="#ffd700"/>
  <circle cx="9" cy="8" r="0.6" fill="#da70d6"/>
  <!-- Magic trail -->
  <path d="M8 8C10 10 12 10 14 8" stroke="#da70d6" stroke-width="1" fill="none" stroke-linecap="round"/>
  <path d="M10 10C12 12 14 12 16 10" stroke="#ffd700" stroke-width="0.8" fill="none" stroke-linecap="round" opacity="0.7"/>
</svg>
