<svg xmlns="http://www.w3.org/2000/svg" viewBox="0 0 64 64" fill="none">
  <defs>
    <linearGradient id="gearMetal" x1="0%" y1="0%" x2="0%" y2="100%">
      <stop offset="0%" stop-color="#b0bec5"/>
      <stop offset="50%" stop-color="#78909c"/>
      <stop offset="100%" stop-color="#546e7a"/>
    </linearGradient>
    <linearGradient id="gearGold" x1="0%" y1="0%" x2="0%" y2="100%">
      <stop offset="0%" stop-color="#ffd700"/>
      <stop offset="100%" stop-color="#b8860b"/>
    </linearGradient>
  </defs>

  <!-- Outer gear -->
  <path d="M32 6 L36 6 L38 12 L44 14 L48 10 L52 14 L48 20 L50 26 L56 28 L56 32 L50 34 L48 40 L52 46 L48 50 L44 46 L38 48 L36 54 L32 54 L30 48 L24 46 L20 50 L16 46 L20 40 L18 34 L12 32 L12 28 L18 26 L20 20 L16 14 L20 10 L24 14 L30 12 Z"
        fill="url(#gearMetal)" stroke="#37474f" stroke-width="2"/>

  <!-- Inner circle -->
  <circle cx="32" cy="30" r="12" fill="url(#gearGold)" stroke="#8b6914" stroke-width="2"/>

  <!-- Center hole -->
  <circle cx="32" cy="30" r="5" fill="#37474f" stroke="#263238" stroke-width="1"/>

  <!-- Gear teeth highlights -->
  <circle cx="32" cy="30" r="3" fill="url(#gearMetal)"/>
</svg>
