<svg xmlns="http://www.w3.org/2000/svg" viewBox="0 0 24 24" fill="none">
  <defs>
    <linearGradient id="shieldBlue" x1="0%" y1="0%" x2="100%" y2="100%">
      <stop offset="0%" style="stop-color:#4a90d9"/>
      <stop offset="50%" style="stop-color:#2d6cb5"/>
      <stop offset="100%" style="stop-color:#1e4d8c"/>
    </linearGradient>
    <linearGradient id="shieldGold" x1="0%" y1="0%" x2="100%" y2="100%">
      <stop offset="0%" style="stop-color:#ffd700"/>
      <stop offset="100%" style="stop-color:#daa520"/>
    </linearGradient>
  </defs>
  <!-- Shield body -->
  <path d="M12 2L3 6V11C3 16.5 7 21 12 22C17 21 21 16.5 21 11V6L12 2Z" fill="url(#shieldBlue)" stroke="#1e3a5f" stroke-width="1"/>
  <!-- Gold rim -->
  <path d="M12 3L4 6.5V11C4 16 7.5 20 12 21C16.5 20 20 16 20 11V6.5L12 3Z" fill="none" stroke="url(#shieldGold)" stroke-width="1.5"/>
  <!-- Center emblem -->
  <path d="M12 8L14 11H10L12 8Z" fill="#ffd700"/>
  <circle cx="12" cy="13" r="2" fill="#ffd700" stroke="#daa520" stroke-width="0.5"/>
  <!-- Highlight -->
  <path d="M6 8C6 8 8 7 10 8" stroke="rgba(255,255,255,0.4)" stroke-width="1" stroke-linecap="round"/>
</svg>
